<?xml version="1.0" encoding="UTF-8"?><svg xmlns="http://www.w3.org/2000/svg" viewBox="0 0 344.17 190.02"><g id="a"><path d="m114.71,33.76c-3.58.87-7.03,5.17-8.57,10.5-2.41,8.32-1.42,17.27-.6,23.86,1,7.97,3.15,37.67,10.47,64.22.97,3.53,5.79,5.49,11.83,4.68,12.19-1.63,90.64-17.77,118.37-26.43,1.79-.56,3.99-3.8,3.99-7.7,0-25.23-4.77-44.02-7.89-69.28-.59-4.76-.4-11.42-5.34-15.57-4.45-3.74-10.9-3.37-13.42-3.03-33.12,4.47-74.77,10.44-108.83,18.74Z" fill="#fff"/></g><g id="b"><path d="m181.35,144.06c-1.21-.29-2.48-.27-3.68.08-1.19.32-2.29.91-3.21,1.72-.31.24.08.78.39.55,1.89-1.19,4.15-1.63,6.34-1.25.63.08.71-.94.16-1.1Z" fill="#333"/><path d="m184.13,143.5c.54.1.83-.52.59-.77-.51-.61-1.25-.97-2.04-1.02-.72-.05-1.44.14-2.04.55-.39.31-.08.94.39.7,1.13-.68,2.81.48,3.1.54Z" fill="#333"/><path d="m246.43,147.03h0c-10.55,0-14.43.2-34.7-2.51-.1-.11-.26-.14-.39-.08-1.37.68-3.75,1.23-9.71,6.27-8.49-4.12-8.24-7.56-12.45-10.57-1.09-.85-2.46-1.27-3.84-1.17-.17.01-.3.16-.29.33,0,.16.14.28.29.29,5.27.49,6.56,8.14,15.36,11.98-6.35,5.55-11.82,14.83-11.59,23.34,0,.2.16.36.36.35.16,0,.31-.12.34-.28,1.91-13.6,8.74-21.76,20.05-28.82.63-.39,1.17-.78,1.8-1.17,12.32,3.2,31.63,3.59,34.3,3.05-.47,1.1-.94,2.19-1.33,3.29-.7,1.43-1.25,2.92-1.64,4.46-.03.22.13.42.35.45.14.02.27-.03.36-.14,2.41-3.62,10.26-25.45,12.06-30.63,3.42-9.41,5.93-19.78,13.55-26.24,3.97-3.37,8.97-5.3,14.18-5.48.14-.02.23-.14.22-.28-.01-.08-.06-.16-.14-.19-4.62-.7-9.32,1.02-13.16,3.6-8.67,6.07-11.45,15.54-14.88,25.38-2.61,7.27-5.8,16.63-9.09,24.75Z" fill="#333"/><path d="m283.72,119.54c0-.31-.47-.39-.47-.08-1.06,8.45-2.78,16.81-5.17,24.99-2.42,8.07-5.68,15.87-9.71,23.26-1.86,3.42-4.89,6.06-8.54,7.44-3.85,1.36-7.84,2.25-11.9,2.66-22.47,2.96-44.62-1.14-57.33-2.04-.31,0-.39.55-.08.55,4.54.94,9.09,1.41,13.63,1.96,13.4,1.59,27.82,2.59,41.28,1.1,4.28-.37,8.53-1.11,12.69-2.19,3.77-1.07,7.13-3.25,9.63-6.27,4.05-5.19,8.47-16.67,10.57-22.87,1.89-5.68,3.36-11.49,4.39-17.38.54-.57,1.01-1.2,1.41-1.88,1-1.51,1.82-3.15,2.43-4.86.31-.86.39-1.8.7-2.74.08-.24-.24-.31-.31-.08-.34.83-.74,1.64-1.17,2.43l-1.17,2.35c-.44.86-.94,1.7-1.49,2.5.57-2.91.78-5.89.63-8.85Z" fill="#333"/><path d="m134.51,156.2c-2.63,1.02.61,3.75,3.13,5.01,13.04,6.79,13.51,8.59,22.32,6.19,8.89-2.27,17.65-5.01,26.24-8.22.48-.18.96-.39,1.41-.63,1.81.07,3.62-.23,5.33-.86.55-.24.39-1.1-.24-.94-2.04.48-4.39,1.1-6.42.24-4.2-1.87-4.6-9.04-10.57-9.56-2-.31-4.03.39-5.4,1.88-.2.3-.04.96.47.71.53-.34,1.08-.66,1.65-.94,1-.47,2.12-.63,3.21-.47,3.72.48,5.2,4.8,7.21,7.21.39.47,2.12,2.59,2.82,2.35-8.68,3.18-17.52,5.93-26.48,8.22-5.2,1.4-7.02,1.29-12.3-1.57-10.34-5.51-9.56-5.04-10.5-5.64-1.1-.63-2.29-1.65-.82-2.12,6.61-2.1,35.16-10.68,37.64-11.43.31-.08.16-.55-.16-.48-6.46,1.05-19.82,5.22-25.14,6.81v-.08c-.43-1.06-1.33-1.87-2.43-2.19-1.37-.3-2.8-.24-4.15.16-1.33.31-3.84.94-4.86-.31-.78-.94,1.25-1.72,1.8-1.96,11.86-6.62,55.7-12.38,63.52-16.29,3.04-1.57,5.39-4.45,5.01-7.83-.08-.63-1.02-.63-.94,0,.05,2.74-1.47,5.27-3.92,6.5-6.8,3.92-37.01,7.54-55.06,13.24-2.94.79-5.8,1.87-8.54,3.21-.7.39-1.33.78-1.96,1.17-.47.39-1.02.78-1.1,1.41-.16,1.25,1.49,2.04,2.51,2.19,1.37.17,2.75.07,4.07-.31,1.29-.38,2.66-.33,3.92.16.51.22.91.65,1.1,1.17,0,.04.03.08.07.08,0,0,0,0,0,0-3.52,1.09-11.83,3.67-12.45,3.91Z" fill="#333"/><path d="m248,129.02c.26.17.55.28.86.31,1.41,0-.24-1.17-.63-1.41-2.81-1.61-5.77-2.92-8.85-3.92-.87-.35-1.8-.52-2.74-.48-2.51.28-3.95,2.18-6.11,2.98-.39.16-.24.78.16.7,1.98-.44,4.18-2.32,5.87-2.5,1.8-.24,3.84.94,5.48,1.65,2.05.73,4.04,1.62,5.95,2.66Z" fill="#333"/><path d="m245.57,136.62c-3.61.74-7.36,0-10.42-2.04-.39-.24-1.57-1.41-1.88-.63s1.02,1.41,1.49,1.72c1.52,1,3.23,1.69,5.01,2.04,2.01.42,4.09.28,6.03-.39.39-.08.23-.79-.23-.7Z" fill="#333"/><path d="m221.53,131.29c-.52.44-.88,1.05-1.02,1.72,0,.76.46,1.45,1.17,1.72.82.31,1.66.57,2.51.78,1.67.62,3.4,1.04,5.17,1.25,1.03.16,2.06-.23,2.74-1.02.55-.78.39-2.74,1.57-2.82,1.14,0,2.67,1.25,4.15,1.25,2.19,0,1.64-2.74.55-3.68-1.69-1.33-3.73-2.12-5.87-2.27-4.5-.64-9.2,1.29-10.96,3.05Z" fill="#2973ef"/><path d="m280.51,60.72c.77,1.27-1.86,11.39,3.37,14.1,3.42,1.71,8.09-.44,8.85-3.6.07-.2-.04-.42-.25-.49-.18-.06-.37.02-.46.18-.89,1.42-2.25,2.5-3.84,3.05-1.21.34-2.5.29-3.68-.16-1.88-.86-2.51-2.98-2.74-4.86,0-.31-.08-.55-.08-.86,1.02-.47,2.35-.25,2.9-.24.55.13.98.1,1.76-.12.69-.36.96-.5,1.44-1.06.31-.36.08-1.06-.35-.87s-.57.99-2.81,1.2c0,0-1.42-.55-3.1.23-.1-2.11.29-5.56.16-6.34-.16-.66-.52-1.26-1.02-1.72-.31-.39-1.1-1.02-.78-1.57.4-.8,3.88-3.96,5.33-6.19.92-1.58,1.58-3.3,1.96-5.09,0-.24-.24-.47-.48-.24-.47.7-.84,1.46-1.1,2.27-1.36,3.41-2.41,3.92-4.7,6.35-.69.69-1.35,1.43-1.96,2.19-.43.61-.43,1.43,0,2.04.57.56,1.09,1.16,1.57,1.81Z" fill="#333"/><path d="m287.79,52.26c-1.95,0-1.85,3.37-.08,2.43,1.05-.79,1.31-2.43.08-2.43Z" fill="#333"/><path d="m289.83,51.32c-.09.31-.14.62-.16.94.08.55.63.47.94.16.23-.32.37-.7.39-1.1.11-1.12-.71-2.11-1.83-2.22-.9-.09-1.76.44-2.09,1.28-.11.21.29.94.86.08.24-.28.58-.45.94-.47.57.02,1.01.5.99,1.06,0,.09-.02.18-.05.27Z" fill="#333"/><path d="m307.06,152.91c-2.1-.47-4.29-.39-6.34.24-1.72.47-4.39,1.25-5.56,2.82-2.01,2.52,3.85,5.26,9.24,2.43,1.41-.79,6.19-4.54,2.66-5.49Z" fill="#333"/><path d="m204.84,101.13c-.3-3.76-7.08-65.36-7.28-65.56-.08-.31-.39-.31-.63-.24-.37.04-46.67,8.2-48.25,8.77-.19.08-.28.29-.2.48.05.12.15.2.28.22,2.61,0,47.65-8.09,48.09-8.22.39,3.28,7.76,72.5,7.83,73.15-.12.04-38.17,7.3-47.23,10.03,0-3.32-8.32-74.37-8.38-74.49-.08-.55-.94-.55-.86,0,.56,7.34,8.25,74.8,8.46,74.8-.19.18-.2.47-.02.66.13.13.32.18.49.12,7.54-1.61,47.66-10.37,47.86-10.42.23-.02.41-.22.39-.45-.03-2.96-.21-5.92-.55-8.86Z" fill="#333"/><path d="m233.2,30.17c-.1-.51-1.92-.33-2.04-.32-.8.11-1.53.41-4.46.87-2.04.31-22.4,3.52-24.59,3.99-.16,0-.24.24-.24.39.93,10.27,3.78,29.11,4.47,34.23.08.7.31,1.33.39,2.04,0,.14.25.24.39.24,6.37-.8,28.02-5.17,28.98-5.33.2-.06.31-.28.25-.48-.02-.05-.05-.11-.09-.15,0-1.9.02-3.32-.08-4.46-.66-7.51-2.09-25.96-2.97-31.02Zm-25.84,40.55c-.01-.12-4.47-33.81-4.78-35.53,3.86-.3,7.7-.8,11.51-1.49,4.8-.66,13.89-2.25,15.19-2.43.98-.14,1.95-.35,2.9-.63.47,4.07,3.45,34.23,3.52,34.78-3.68.66-24.74,4.5-28.35,5.3Z" fill="#333"/><path d="m289.9,84.69c1.01-1.79,1.52-3.82,1.49-5.87-.03-1.15-.13-2.31-.31-3.45-.05-.15-.2-.23-.35-.18-.11.04-.19.14-.2.26,0,2.05-.18,4.09-.55,6.11-.18.83-.5,1.62-.94,2.35-.39.7-1.02,1.33-1.41,2.12-.08.24.08.47.31.39.85-.3,1.55-.92,1.96-1.72Z" fill="#333"/><path d="m295.31,51.79c.73,1.46.84,3.15.31,4.7-.23.79-.55,1.55-.94,2.27-.24.55-1.49,2.12-.86,2.66,1.04,1.04,2.37-2.94,5.09-2.51,3.52.55,3.99,8.69-2.9,6.97-.31-.08-.86.08-.7.55.47,1.17,2.9.94,2.9,1.02,2.35,2.51,5.95.24,6.27.16-1.72,4.7-1.88,13.16-1.88,13.24-4.54.78-8.77,3.21-12.77,5.48-1.64.94-3.37,1.8-4.93,2.9-.13.07-.17.24-.1.36.07.12.21.17.34.11,2.29-.57,3.94-1.8,8.69-4.31,4.56-2.41,8.62-4.02,13.63-3.52-.12,0-1.24,4.82-.94,5.48.67,1.47,1.75,1.75,4.07,6.66.47,1.46,1.07,2.88,1.8,4.23.09.14.27.18.41.09.09-.05.14-.15.14-.25.24-2.11-1.02-4.39-2.04-6.27-.92-1.81-2.11-3.48-3.52-4.93.14-.14.81-3.11,1.41-5.4.09-.3-.08-.61-.37-.7,0,0-.01,0-.02,0-1.55-.3-3.14-.33-4.7-.08,0-.08.24-5.48.71-8.22.33-1.89.8-3.74,1.41-5.56,1.1-.67,2.1-1.49,2.98-2.43,1.57-1.57,4.7-5.48,4.78-5.64.08.08,1.41,1.72,2.59.78-.3.3-1.09,3.26-.08,7.05,1.12,3.74,4.23,6.55,8.07,7.28.08,0-1.49,1.41-.24,2.82-6.07,2.33-9.42,7.17-9.79,12.61-.09,1.43.18,2.85.78,4.15.73,1.28,1.65,2.45,2.74,3.45-1.17.15-1.99,1.21-1.85,2.38.03.23.1.46.2.67-3.05.8-5.84,2.39-8.07,4.62-4.8,4.64-4.52,10.9-.94,13.63-.82.2-1.33,1.02-1.13,1.84.08.32.26.61.51.82-1.31.63-2.52,1.45-3.6,2.43-2.35,2.23-3.58,5.39-3.37,8.62.11,2.39,1.06,4.66,2.66,6.43.32.29.66.55,1.02.78-.59.97-.47,2.22.31,3.05-1.65,1.87-3.19,3.83-4.62,5.87-1.5,1.98-2.77,4.14-3.76,6.42,1.28-1.06,2.78-1.83,4.38-2.27,2.67-.79,7.41-1.72,9.56,0,.13-3.56-1.1-7.03-3.45-9.71.85-.65,1.03-1.87.39-2.74.51-.06,1.01-.19,1.49-.39,6.71-2.88,8.74-12.79,3.45-17.54-.42-.38-.89-.7-1.41-.94.86-.39.31-1.33.31-1.41,7.2.6,13.03-10.12,8.93-18.33,1.24-.38,1.98-1.63,1.72-2.9,3.29.55,6.35-1.49,8.15-4.07,2.81-3.98,2.09-8.57.16-13-.16-.31-1.96-3.92-2.04-3.84,1.02-.69,1.29-2.07.6-3.1-.08-.13-.18-.24-.29-.35.79-.32,1.5-.83,2.04-1.49,1.58-2.67,1.98-5.88,1.1-8.85-1.25-4.31-5.48-8.14-10.18-7.67-.24,0-.55.08-.78.08-.24-2.58-3.21-2.51-3.29-2.58.08,0,.39-3.84.39-4.23,0-6.96-5.33-14.42-12.45-15.9-3.41-.7-6.95-.02-9.87,1.88-2.35.39-4.93-.48-7.05.94-1.84,1.16-2.89,3.23-2.74,5.4.58,4.92,8.43,5.2,11.2,10.24Z" fill="#333"/><path d="m316.54,158.78v1.1c0,.15.13.28.28.28.12,0,.23-.08.26-.2.07-.28.73-1.36,1.49-7.75,1.26-10.39,2.02-19.7-.31-30.24-.16-.7-.48-1.41-.63-2.12-.08-.24-.47-.15-.39.08.78,5.13,1.23,10.32,1.33,15.51,0,12.7-2.04,21.16-2.04,23.34Z" fill="#333"/><path d="m232.73,61.66c-7.04.88-10.91,2.09-20.76,3.6.72-.89,1.32-1.86,1.8-2.9,3.52,0,3.13-2.74,1.64-4.07,0,0,1.02-2.51,1.57-3.52,2.35-4.07,6.43-6.81,9.32-10.42,1.01.4,2.15-.1,2.55-1.11.3-.76.1-1.63-.51-2.18.08-.08.08-.24.16-.31.45-1.2.66-2.48.62-3.76,0-.07-.05-.12-.12-.12-.07,0-.12.05-.12.12h0c-.22,1.3-.67,2.55-1.33,3.68-1.73-1.16-3.93,1.98-2.19,3.37-1.33,1.54-2.74,3-4.23,4.39-4.52,4.52-4.77,5.04-6.73,9.71-1.18-.18-2.29.63-2.47,1.82-.12.81.22,1.63.9,2.1-.6,1.39-1.48,2.64-2.58,3.68-.2.03-.41.02-.53.05-.16-3.76-.64-7.81-.95-11.49-.73-6.9-1.38-10.7-1.88-13.71-.1-1.05-.37-2.08-.78-3.05-.08-.16-.39-.16-.39.08-.09.89-.07,1.78.08,2.66,1.02,6.1,2.63,23.67,2.98,26,.08.3.32.51.63.55,4.47-.36,13.87-2.57,23.5-3.92.62-.16.55-1.34-.16-1.26Z" fill="#333"/><path d="m231.55,73.41c-.28.05-23.18,4.24-23.18,4.54-.34,0-.39.6-.39.94-.01,1.81.12,3.62.39,5.4,0,.37.04.87.39.78,1.82-.2,3.62-.51,5.4-.94.12-.02,14.85-2.58,20.36-3.76.95-.17,1.87-.42,2.78-.75.29-.09.49-.35.51-.66.08-1.04.08-2.09,0-3.13,0-.94-.08-1.89-.24-2.82.13-.22.07-.5-.15-.64-.07-.04-.16-.07-.24-.07-1.63.14-4.3.87-5.64,1.1Zm.48,6.42c-3.42.71-10.2,1.87-11.12,2.04,0-1.76-.16-3.52-.47-5.25,3.52-.63,15.51-2.9,16.37-3.13-.08.78,0,1.65,0,2.43-.03.97.03,1.94.16,2.9-.62.06-4.09.79-4.94,1.02h0Z" fill="#333"/><path d="m227.48,88.68c-18.15,3.71-17.94,3.43-17.94,3.68-.18.27.1,6.97.78,6.97,2.13-.19,23.07-3.98,25.85-4.62,1.02-.17,2.02-.46,2.98-.86.16-2.16.16-4.34,0-6.5.13-.22.07-.5-.15-.64-.07-.04-.16-.07-.24-.07-1.02,0-9.47,1.67-11.28,2.04Zm3.6,5.8c-.08-1.8-.16-3.52-.24-5.33.48-.08,6.5-1.17,7.36-1.41-.06,1.78-.01,3.56.15,5.33-.78,0-6.5,1.25-7.28,1.41h0Z" fill="#333"/><path d="m210.77,104.99c-.08.83.42,6.49.49,6.56,1.03.8,28.53-4.82,29.14-5.17.16-2.16.16-4.34,0-6.5.13-.22.07-.5-.15-.64-.07-.04-.16-.07-.24-.07-2.62.2-27.2,5.22-28.89,5.54-.23.05-.32.06-.35.27Zm7.07,4.68c-.08-.94,0-4.46-.24-5.25,1.65-.31,20.99-3.92,21.85-4.15-.06,1.78-.01,3.56.16,5.33-.77.08-18.01,3.37-21.77,4.07h0Z" fill="#333"/><path d="m113.6,126.59c.34,2.4,1.14,4.71,2.35,6.82,1.37,2.06,3.52,3.47,5.95,3.92,2.65.42,5.36.36,7.99-.16,31.55-4.73,68.28-13.96,86.78-18.25,6.34-1.49,12.77-2.98,19.03-4.78,6.29-1.82,10.66-2.82,13-5.4,1.06-1.3,1.59-2.95,1.49-4.62.08-5.6-.24-11.2-.94-16.76-1.24-14.17-3.28-28.87-6.81-57.18-.19-2.28-.59-4.53-1.17-6.74-.74-2.41-2.25-4.5-4.31-5.95-2.99-1.91-6.48-2.89-10.02-2.82-5.03.33-27.9,3.89-67.05,9.56.01.5-.01.99-.08,1.49,6.5-1.02,63.44-9.4,66.73-9.63,2.93-.19,5.86.43,8.46,1.8,4.93,2.72,5.53,6.81,6.11,12.38.86,6.81,4.54,36.58,5.48,44.72.37,3.37,2.5,22.26,2.17,29.32-.18,3.87-2.21,5.05-6.16,6.48-11.91,3.97-78.89,20.12-111.3,24.99-5.71.84-11.46,1.82-14.64-3.06-1.16-2.14-1.91-4.48-2.19-6.89-3.72-20.09-6.83-37.24-8.31-57.65-.49-6.07-.62-12.16-.39-18.25.48-5.58,2.38-10.06,7.05-13.24,4.07-2.82,9.01-4.23,13.79-5.33,1.02-.24,32.01-5.4,33.03-5.63-.08-.39.04-1-.04-1.32-36.81,5.33-48.5,7.34-53.04,17.61-2.52,4.87-2.26,11.12-2.11,16.6,1.42,11.29-.99,13.14,9.17,67.98Z" fill="#333"/><path d="m175.47,29.7c1.08.09,2.03-.72,2.11-1.8,0-.03,0-.05,0-.08.01-1.07-.84-1.95-1.91-1.96-.51,0-1.01.19-1.38.55-.53.47-.8,1.17-.71,1.88.21.86,1,1.44,1.88,1.41Z" fill="#333"/><path d="m111.25,44.9c-.31.08-.16.55.16.55,1.41-.24,2.74-.48,4.15-.63,1.58-.24,23.25-3.78,23.5-3.84-.55-.15-1.08-.39-1.57-.7-19.46,3.24-25.91,4.62-26.24,4.62Z" fill="#333"/><path d="m235.7,24.3c.31-.08.16-.55-.16-.47-.12,0,.71-.11-4.15.7-3.13.55-6.27.94-9.4,1.49-4.47.78-66.5,11.28-67.59,11.51-.47.39-.94.86-1.41,1.17.12-.03,82.59-14.41,82.71-14.41Z" fill="#333"/><path d="m141.17,66.48c1.01-.23,1.12-.66,1.1-1.48-.02-1-1.09-13.6-1.58-15.71.13-.17.1-.41-.07-.54,0,0,0,0,0,0-.72-.2-1.48-.2-2.19,0-2.8.28-22.36,3.58-23.34,3.76-.09.04-.16.13-.16.24-.03.31-.15,1.41-.15,2.11,0,2.52.95,13.75,1.25,14.64.12.34.27.58.48.63,1.61.36,21.61-2.95,24.67-3.63Zm-25.69-13.36c6.05-.44,12.32-1.65,24.83-3.52-.1,2.68,1.06,15.4,1.17,15.74-.12,0-24.31,3.81-24.44,3.84,0-.16.08-.24.08-.39,0-4.04-1.12-14.59-1.65-15.66Z" fill="#333"/><path d="m141.64,88.99c.99-.12,1.96-.36,2.9-.7.19-.05.3-.24.25-.43,0-.02,0-.03-.01-.04,0-.12.03-1.87-.04-2.57-.27-2.86-.95-8.69-1.37-11.61-.16-1.02-.16-2.04-.31-2.98-.08-.39-.78-.47-.86-.08-1.47.08-2.94.27-4.39.55-15.26,2.77-19.56,3.47-20.76,3.88-.34.11-.59.41-.63.77-.42,1.97,1.62,17.4,1.74,17.67.25.56.45.41.93.32,6.75-1.37,13.61-3.15,22.55-4.78Zm-23.57-4.39c-1.05-7.41-1.15-8.27-1.25-8.85,2.51-.25,7.22-1.12,9.79-1.57,12.45-2.16,13.84-2.48,15.27-2.9.42,5.49,1.13,10.95,2.11,16.37-1.53,0-5.28.9-9.79,1.72-9.1,1.9-13.66,3.16-15.27,3.52,0-.82-.65-6.83-.86-8.3h0Z" fill="#333"/><path d="m123.94,98.31c.4,3.57.27,2.98.86,7.13,1.45,9.9,1.73,12.27,2.04,12.69.09.21.33.3.54.21.07-.03.12-.08.17-.13,2.37-.2,10.51-1.79,13.08-2.35.77-.14,1.54-.35,2.27-.63.83.27.48-1.94.39-2.74-.2-1.96-.46-4.7-.78-6.66-1.43-9.42-1.58-10.61-1.96-11.9.09-.2,0-.44-.2-.54-.01,0-.02,0-.03-.01-.57-.09-1.16-.06-1.72.08-1.39.15-9.5,1.65-10.97,1.88-1.26.16-2.5.47-3.68.94-.21.1-.3.36-.19.57.01.02.02.04.04.06.13.46.18.93.16,1.4Zm3.99-1.96c1.49-.24,2.98-.55,4.47-.78,4.34-.69,7.79-1.43,7.68-1.41,0,4.13,1.2,8.79,1.96,15.19.01.12.52,4.82.55,4.93-.59.03-1.16.13-1.72.31-11.88,2.38-11.06,2.18-13,2.66,0-.33-2.71-17.53-2.98-18.88-.08-.55-.24-1.02-.31-1.57,1.14-.04,2.26-.2,3.37-.47Z" fill="#333"/><path d="m148.76,123.46c-.11-1.56-.08-3.13-.31-4.62-.07-.26-.35-.36-.71-.37-.52-.02-22.1,3.99-23.65,4.76-.26-.14-.58-.05-.72.21-.04.08-.07.17-.07.26.28,2.98.75,5.93,1.41,8.85.03.11.15.16.25.13.09-.03.14-.11.14-.21,0-1.79-.69-8.5-.7-8.62,1.5-.16,2.99-.43,4.46-.78,3.15-.6,17.9-3.1,18.72-3.45,0,1.36.08,2.72.24,4.07.33,3.6.34,3.97.63,4.54.09.14.28.18.42.09.06-.04.11-.1.13-.17.23-1.03-.03-1.76-.24-4.7Z" fill="#333"/><path d="m133.1,106.07c-.86,1.57-3.29,6.11-3.68,6.81-.38.59-.69,1.22-.94,1.88-.05.21.09.42.3.47.12.03.24,0,.33-.08.43-.52,4.62-8.15,4.7-8.38.12.11,6.17,5.95,6.97,6.34.21.1.45,0,.55-.2.05-.11.05-.24,0-.35-.2-.34-6.69-6.57-6.97-6.81,2.32-4.33,4.23-7.64,4.7-8.93.16-.55-.63-.86-.86-.39-1.02,1.8-4,7.6-4.54,8.62-2.62-2.48-6.45-6.36-7.21-6.74-.17-.05-.34.04-.39.21-.02.06-.02.12,0,.18.16.47,6.42,6.74,7.05,7.36Z" fill="#2973ef"/><path d="m118.76,76.86c.68.58,1.45,1.06,2.27,1.4,2.19,1.05,8.49,3.78,8.62,3.84-1.96,1.96-7.28,7.05-7.99,7.6-2.26,1.89-1.12,2.45.39.94.55-.47,7.75-7.28,8.62-8.15,2.66,1.17,9.56,4.07,10.34,4.39,1.68.84,2.11.08.55-.7-3.6-1.8-8.56-3.77-10.1-4.54,7.53-7.23,6.59-6.51,9.09-9.01.16-.16-.08-.55-.31-.39-3.45,2.76-6.75,5.72-9.87,8.85-6.14-2.63-9.77-4.5-11.05-4.88-.58-.16-.69.2-.54.66Z" fill="#2973ef"/><path d="m118.14,55c.9.53,7.76,3.75,9.32,4.46-2.04,1.72-8.22,6.97-9.24,7.99-.15.16-.15.41,0,.56.12.12.31.15.46.07,1.03-.64,2.01-1.37,2.9-2.19,1.49-1.25,6.11-5.17,6.97-5.87,1.15.57,7.47,3.53,11.09,4.76.26.09.45-.14.14-.34-1.82-1.21-10.26-5.14-10.38-5.2,2.11-1.8,8.93-7.91,9.4-8.3.24-.24-.08-.63-.31-.47-3.29,2.03-6.01,4.81-10.1,8.22-.12-.06-9.53-4.46-10.73-4.86-.31-.08-.47.31-.31.55.21.26.47.48.78.62Z" fill="#2973ef"/><path d="m145.87,120.4c-.71.35-1.37.8-1.96,1.33-.86.63-6.03,4.46-7.67,5.8-1.1-.39-5.95-1.88-7.21-2.35-1.02-.31-1.96-.7-3.05-.94-.21-.05-.42.09-.47.3-.03.15.03.31.15.4,1.18.86,8.51,3.13,9.48,3.37-.48.38-.9.83-1.25,1.33-.16.16.16.39.31.31.73-.38,1.43-.79,2.11-1.25,1.02.31,1.96.47,2.98.7.14.06.29,0,.35-.14.05-.12,0-.27-.11-.34-.69-.39-1.43-.71-2.19-.94.45-.37,8.32-5.98,9.01-6.97.1-.23-.01-.49-.24-.59-.07-.03-.15-.04-.23-.03Z" fill="#2973ef"/><path d="m158.32,155.57c-1.02.39-5.17,1.8-6.27,2.19.7.31,3.21,1.49,3.76,1.72,2.04-.7,4.15-1.33,6.19-2.04-.63-.31-3.13-1.57-3.68-1.88Z" fill="#2973ef"/><path d="m165.45,153.14c-1.88.7-3.84,1.33-5.71,2.04.55.31,3.13,1.57,3.84,1.88,1.88-.63,3.76-1.25,5.64-1.8-1.33-.78-2.51-1.41-3.76-2.12Z" fill="#2973ef"/><path d="m170.62,155.96c-1.88.63-3.76,1.17-5.64,1.8,1.33.63,4.93,2.43,5.4,2.66,1.88-.55,3.68-1.17,5.56-1.72,0-.08-4.31-2.27-5.33-2.74Z" fill="#2973ef"/><path d="m150.72,157.21c2.11-.78,4.15-1.49,6.27-2.19-.24-.08-3.76-1.96-3.84-2.04-2.27.7-6.81,2.19-6.89,2.19.23.08,4.07,1.8,4.47,2.04Z" fill="#2973ef"/><path d="m155.81,160.67c-.78.24-6.34,1.96-6.66,2.04,1.1.39,2.19.78,3.37,1.17,3.26.93,5.09.1,8.62-.78-.08,0-4.46-2.04-5.33-2.43Z" fill="#2973ef"/><path d="m154.32,159.95c-.24-.08-2.66-1.25-3.68-1.72-.55.16-6.58,2.27-6.58,2.27.63.31,3.21,1.41,3.84,1.72.16-.07,6.27-2.19,6.42-2.27Z" fill="#2973ef"/><path d="m158.39,154.48c1.96-.7,3.84-1.41,5.8-2.04-1.02-.53-1.99-1.16-2.9-1.88-.31.08-4.86,1.41-6.81,2.04.16.08,3.53,1.72,3.92,1.88Z" fill="#2973ef"/><path d="m163.49,158.23c-1.17.39-5.25,1.65-6.11,1.96.55.24,5.09,2.19,5.56,2.43,1.1-.31,5.09-1.49,5.95-1.72-.55-.23-4.07-2.04-5.4-2.66Z" fill="#2973ef"/><path d="m179.15,153.22c-2.11.7-6.74,2.19-6.97,2.19.7.31,5.01,2.5,5.4,2.66,1.33-.39,2.58-.86,3.92-1.25-.55-.63-2.04-3.13-2.35-3.6Z" fill="#2973ef"/><path d="m173.99,150.09c-1.1.39-6.89,2.43-7.21,2.51,1.02.55,3.6,1.88,3.92,2.04,2.58-.78,5.09-1.65,7.68-2.43-.24-.24-3.06-2.11-4.39-2.11Z" fill="#2973ef"/><path d="m165.53,151.97c.94-.31,1.8-.63,2.74-.94-.62-.49-1.13-1.1-1.49-1.8-1.41.31-2.9.71-4.31,1.1,1.02.47,3.06,1.64,3.06,1.64Z" fill="#2973ef"/><path d="m149.39,157.69c-.16-.08-3.92-1.8-4.39-2.12-1.49.56-3.6.82-3.6,2.27,0,.94,1.1,1.65,1.8,2.11.31-.16,5.01-1.88,6.19-2.27Z" fill="#2973ef"/><path d="m216.13,126.2c-2.06.35-4.1.82-6.11,1.41-1.57.63-3.92,1.88-3.13,3.92.47,1.17,1.8,1.49,2.98,1.65,2.66.44,5-.46,8.3,1.1.71.39,1.25-.7.63-1.02-3.67-1.92-8.84.06-10.65-1.88-.78-.86.7-1.8,1.41-2.19,4.17-2.25,10.62-1.59,11.51-4.93.18-1.17-.51-2.3-1.65-2.66-1.19-.6-2.51-.89-3.84-.86-.13,0-.24.11-.24.24s.11.24.24.24c1.25.08,4.15.86,4.39,2.35.29,1.76-3.38,2.42-3.84,2.66Z" fill="#333"/></g><g id="c"><g id="d"><path id="e" d="m19.63,135.73c5.78.63,9.93,5.74,9.92,10.53,0,6.15-4.71,10.21-9.96,10.62-6.6.52-12.06-4.45-12.12-10.52-.07-7.05,5.89-11.31,12.16-10.63Z" fill="#fff"/><path id="f" d="m128.28,137.87c.09,2.94,1.43,25.83-.96,25.79-1.8,0-106.69.89-108.5.85-.45-.01-.65-.22-.65-.69.02-2.7.11-2.67-.29-2.88-.3-.17-.53-.44-.65-.76-.12-.32-.13-.68-.03-1,.11-.33.32-.61.61-.8.29-.19.63-.27.97-.24.34.03.66.18.91.42.25.24.4.56.44.9.04.34-.04.69-.22.98-.18.29-.46.51-.79.62-.36.15-.28.14-.32,2.02-.02.8,0,.7.8.69,5.58-.04,96.72-.82,107.14-.82,2.19-1.48.53-24.07.64-24.51.38-1.51.89-1.04.89-.57Z" fill="#2973ef"/><path id="g" d="m19.63,135.73c5.78.63,9.93,5.74,9.92,10.53,0,6.15-4.71,10.21-9.96,10.62-6.6.52-12.06-4.45-12.12-10.52-.07-7.05,5.89-11.31,12.16-10.63Zm-7.34,15.98c-.23-.36.02-.32,1.25-.79.45-.17.88.91,2.03,2.64.38.58.6,1.26,1.14.93.18-.11-.02-.27-.09-.39-2.07-3.43-2.34-3.47-1.77-3.58.2-.07.41-.12.61-.16.31,0,.38-.16.38-.42,0-1.61.11-1.63-.26-1.6-.28.05-.56.04-.83-.04-.27-.08-.52-.21-.73-.4-.21-.19-.37-.42-.48-.68-.11-.26-.15-.54-.13-.82,0-.18-.09-.23-.22-.27-.23-.06-.44-.19-.61-.36-.17-.17-.28-.39-.33-.63-.05-.24-.03-.48.04-.71.08-.23.22-.43.41-.58.22-.21.25-.32.04-.56-.93-1.12.33-2.7,1.49-2.6.66.05-.43-1.64,1.71-1.9.78-.09.97.3,1.23-.16.49-.88,1.9-.87,2.53-.32.08.09.19.15.31.16s.24-.02.34-.1c.21-.12.45-.19.69-.2.24-.02.48.02.71.11.22.09.43.23.59.4.17.18.29.39.37.62.05.18.18.18.32.21.27.05.53.17.75.35.22.17.39.4.51.65s.17.53.15.81c-.02.28-.1.55-.24.79-.25.27-.57.46-.93.55-.36.09-.73.07-1.08-.05-1.18-.42-.91-.93-1.33-.82-1.21.3-1.37-.58-1.62-.12-.49.86-1.21.43-1.18.95.04.95-.73.65-.64,1.21.25,1.56-2.07.93-2.16.92-.53-.07-.49.44-.22.62,1.02.64,1.31.51,1.4,1.4.3,2.95-.79,3.56,1.21,5.59.76.78,1.97-3.2.3-4.09-.11-.06-.32-.17-.18-.35.24-.31,1.06.59,2.17.74,1.16.15,2.4-.54,2.85-2.19.03-.12.04-.31.21-.27.55.11-.55,3.48-3.38,2.89-.51-.11-.33.33-.37,1.2-.01.25.1.3.33.34.86.15.76.04.5.79-1.11,3.1-1.27,3.02-1.05,3.13.32.16.47-.09.86-1.05,1.03-2.54.9-2.69,1.3-2.52,1.22.51,1.24.15.93,1.02-.83,2.31-1.19,2.47-.91,2.59.33.14.4-.05,1.04-1.46.56-1.25.5-1.62.91-1.39,1.22.69,1.51.74,1.18,1.26-1.1,1.74.35.81.58.16.03-.08.08-.18.16-.17,1,.19,4.99-5.28,2-10.76-1.21-2.14-3.16-3.77-5.49-4.59-2.32-.82-4.87-.76-7.15.16-5.57,2.21-7.86,8.75-3.77,14.05.37.48.72-.53,1.26.29,1.17,1.77,1.16,1.99,2.05,2.24-.91-1.49-1.27-2.07-1.65-2.66Z" fill="#2973ef"/><path id="h" d="m24.55,144.36c-.01.38-.17.75-.44,1.02-.27.27-.64.42-1.02.43-.35.02-.69-.1-.96-.33-.26-.23-.43-.55-.46-.9-.05-1.77,2.88-1.94,2.88-.21h0Zm-.49,0c0-1.14-1.85-1.1-1.95.2.02.22.11.42.27.57.15.15.35.25.57.27.28,0,.56-.11.77-.3.21-.19.33-.46.35-.75h0Z" fill="#2973ef"/><path id="i" d="m18.42,144.5c.02-1.78,2.88-1.93,2.88-.16,0,1.84-2.9,1.81-2.88.16Zm.45,0c0,1.25,1.93,1.04,1.93-.2,0-1.24-1.94-1.04-1.93.2h0Z" fill="#2973ef"/><path id="j" d="m19.25,146.48c.52.51,1,.27.94.62-.05.29-.22.26-.48.28-1.37-.16-1.1-1.54-.46-.91Z" fill="#2973ef"/><path id="k" d="m20.32,142.75c-.84-.26-1.15.39-1.39-.16-.08-.18.04-.29.18-.37.16-.06.34-.09.51-.07,1.21-.01,1.07.71.7.59Z" fill="#2973ef"/><path id="l" d="m21.02,146.4c-.09-.37.37-.09.45-.8.02-.17.29-.22.34-.06.33.99-.72,1.17-.79.86Z" fill="#2973ef"/><path id="m" d="m22.85,144.88c-.37-.01-.37-.76.01-.74.23,0,.2.21.2.38,0,.15.02.36-.22.35Z" fill="#2973ef"/><path id="n" d="m20.09,144.74c-.23.02-.26-.19-.28-.37-.04-.4.42-.48.48,0,0,.16,0,.35-.2.37Z" fill="#2973ef"/></g><g id="o"><path id="p" d="m55.94,39.23c-.45,14.4-15.95,21.4-27.06,14.91-9.12-5.34-10.79-16.35-4.97-24.36,10.16-13.99,32.53-6.48,32.03,9.45Z" fill="#fff"/><path id="q" d="m69.85,58.01c.43,1.82,26.38-.24,32.65-.35,4.17-.07,1.51.44,1,.45-.8.01-33.3,1.89-34.16,1.17-1.4-1.18-2.47-11.36-2.87-19.08-.04-.85.27-1.39-.29-1.35-4.37.29-3.87-.17-4.33.57-.23.38-.57.69-.97.9-.4.2-.84.3-1.29.27-.45-.03-.88-.18-1.24-.44-.37-.26-.65-.61-.83-1.02-.23-.57-.23-1.22,0-1.79.23-.58.67-1.04,1.23-1.3.56-.26,1.2-.29,1.79-.1.59.2,1.08.62,1.36,1.16.32.6.2.44,4.9.45,1.63,0,.25,13.96,3.06,20.47Z" fill="#2973ef"/><path id="r" d="m40.73,35.65c-.11,2.52-1.36.78-.69-1.45.05-.17.27-.36.48,0,.25.43.13.92.21,1.45Z" fill="#2973ef"/><path id="s" d="m55.94,39.23c-.45,14.4-15.95,21.4-27.06,14.91-9.13-5.34-10.79-16.34-4.97-24.36,10.16-13.99,32.54-6.48,32.03,9.45Zm-22.05-11.07c.88.33.39-.85,1.85-1.59,1.41-.71,1.22,1.04,1.85.43.84-.81,2.37-1.11,2.64.03.13.52.36.48.77.37,1.37-.38,2.05.16,2.08,1.58.1,5.38.54,7.08-.08,11.2-.39,2.61-2.26,2.13-2.22,3.07.08,1.85-.2,2.17.52,2.22,5.21.41,8.8,3.91,9.47,3.06,8.31-10.54.34-23.81-11.81-23.83-13.58-.03-21.05,14.8-12.86,24.32.47.55.41.04,2.2-1.14,4.4-2.91,6.19-1.53,6.13-2.84-.26-4.99.15-5.59-1.16-6.21-3.9-1.85-1.41-3.27-1.56-3.83-.29-1.08-.38-7.82,2.18-6.85Zm14.89,22.4c.49-.4.31-.58-.06-.86-2.13-1.56-4.59-2.61-7.18-3.07-.94-.2-2.01,2.34-6.43.51-1.17-.48-3.62.42-4.57.98-3.09,1.83-3.57,1.95-2.96,2.43,7.02,5.54,15.33,4.86,21.2.01Zm-6.25-16.64c.15-2.73-3.79-2.4-6.08-1.46-2.2.9-1.61.66-1.88,3.15-.2,1.85-2.2.03-2.57.7-.49.9,2.27,1.79,3.09,2.87.35.46.29-.12,2.02-.88,6.36-2.75,5.02,2.62,5.41-4.38Zm-7.27,7.21c-.04,1.58.19,2.99.01,4.41-.14,1.1,4.72,1.73,4.6.14-.15-2.01.12-2.67-.95-2.57-1.86.18-2.44-.9-3.66-1.98Zm3.56-.78c.51.01,1.14-.05,1.06-.57-.06-.41-.34,0-1.91-.42-.86-.23-.23,1.1.84.99Z" fill="#2973ef"/><path id="t" d="m37.43,32.93c.44.03.98.07.94.56-.05.67-.69.21-1.88.79-.73.35-1.35-1.05.93-1.35Z" fill="#2973ef"/><path id="u" d="m38.06,35.74c-.14,1.02-1.09.88-1.09.05,0-.93.97-1.01,1.09-.05Z" fill="#2973ef"/></g><g id="v"><path id="w" d="m74.27,80.23c-12.87,1.21-20.66,15.92-13.21,26.55,9.72,13.86,32.23,7.37,32.52-9.75.17-9.74-8.29-17.84-19.31-16.8Z" fill="#fff"/><path id="x" d="m74.12,120.68c-2.4-1.04-1.7-4.57.67-4.99,2.82-.49,4.45,3.54,1.64,4.86-.68.32-.73.43-.46,5.01.05.85,36.27-1.13,37.48-.83,1.1.27,1.07.9.08.97-2.83.2-32.18,1.66-32.2,1.66-6.53.12-6.7.34-6.71-.9-.04-5.69.13-5.52-.48-5.79Z" fill="#2973ef"/><path id="y" d="m78.93,94.94c-.12,1.45-.05,1.85-.54,1.83-.75-.02-.29-3.35.36-3.23.28.05.11,1.39.18,1.39Z" fill="#2973ef"/><path id="z" d="m80.61,94.36c0,.77-.87.8-.87-.04,0-.32.07-.58.45-.59.41,0,.42.31.42.63Z" fill="#2973ef"/><path id="aa" d="m93.58,97.03c-.29,17.12-22.81,23.61-32.52,9.75-7.45-10.63.34-25.34,13.21-26.55,11.02-1.04,19.48,7.07,19.31,16.81Zm-28.39-10.27c-9.66,8.91-1.86,21.94-.34,20.36,4.71-4.88,8.82-3.97,8-5.73-.25-.53-2.11,1.46-4.52-.87-.48-.61-.77-1.36-.81-2.13-.3-1.38-2.43-.7-1.39-3.47.3-.81-1.76-3.36,1.15-4.89.4-.21.57-.37.44-.94-.08-.36-.08-.72,0-1.08.07-.36.22-.69.44-.99.22-.29.49-.54.81-.72.32-.18.67-.29,1.03-.32.2.02.4-.02.56-.13.17-.11.29-.27.36-.46.12-.32.32-.6.58-.81.26-.21.57-.36.9-.41.33-.06.67-.02.99.1.32.12.59.32.81.58.3.31.41.22.55-.11.18-.34.45-.62.77-.83.32-.2.7-.32,1.08-.34.38-.02.76.07,1.11.24.34.18.63.44.84.76.08.17.22.3.39.37.17.07.36.08.54.02.43-.05.86,0,1.27.13.41.13.78.35,1.1.65.31.29.56.65.73,1.04.16.4.24.82.22,1.25-.02.22,0,.39.28.45.4.07.78.24,1.1.5.32.26.56.59.71.97.15.38.2.79.14,1.2-.06.41-.21.79-.46,1.12-.05.06-.1.13-.12.21-.03.08-.03.16-.03.24,0,.08.03.16.08.23.04.07.1.13.16.18.18.22.31.47.39.74.08.27.09.56.05.84s-.14.55-.3.78c-.15.24-.36.44-.6.59-1.05.63.55,1.06-.28,3.2-.51,1.3-2.77,2.48-4.21,1.72-.53-.28-.9.01-.9.61,0,1.15-.08,1.39.36,1.42,3.03.42,5.86,1.76,8.1,3.84.26.27.46.15.66-.07,13.49-15.14-8.8-32.88-22.73-20.03Zm8.48,14.77c.06.63-.1,1.26.42,1.78.4.49.97.81,1.6.9.63.09,1.27-.06,1.79-.41.79-.42.49-.99.52-1.92.03-.85-1.04-.14-2.48-.98-.35-.2-.38-.52.12-.51,3.43.07,5.81.48,5.74-7.5,0-.97-2-.12-2.11-1.08-.06-.51.84-.62,1.35-.63.21,0,.48.26.6,0,.67-1.57-7.04-3.08-7.45-.23-.61,4.25-.8,4.51-1.98,4.35-1.09-.15-2.18-.5-2.4.22-.16.52.42.84.93,1.03,2.3.82,3.59-.44,3.35,4.98Z" fill="#2973ef"/><path id="ab" d="m77.02,98.57c-1.34-.03-2-1.86-1.35-2.05.55-.16.3,1.32,1.67,1.22.4-.03.85.58-.32.83Z" fill="#2973ef"/><path id="ac" d="m75.82,91.23c.54-.04,1.49.21,1.33.69-.12.35-.31.28-2.15.2-.79-.03-.32-1.07.82-.89Z" fill="#2973ef"/><path id="ad" d="m76.28,94.15c.09.74-.89.79-.88,0,.01-.74.97-.65.88,0Z" fill="#2973ef"/></g></g><g id="ae"><path d="m159.25,46.03c-.93-.03-7.57.89-7.63.9-.36.05.1,1.67,2.28,11.2.17.75.17.77.9.59,2.3-.58,4.6-1.17,6.91-1.76.62-.16.7-.25.56-.86-.69-3.11-1.38-6.22-2.08-9.33-.16-.68-.24-.73-.94-.75Zm-4.41,12.14c-.57-2.5-.88-2.51.34-3.85.11-.11.24-.2.37-.29.05-.03.11-.03.15.01.51.56.68,1.35.44,2.06-.08.16-.42.31-.35.29,0-.13,0-.26-.01-.39-.11.06-.29.1-.32.2-.15.51-.53,1.82-.62,1.96Zm1.35-.41c-.3.1-.6.19-.91.27.06-.33.16-.64.28-.95,0,0,.64.66.64.69h0Zm3.45-1.16c-.01.12.15-.02-3.24.98-.05.01-.1,0-.13-.05-.2-.33-.26-.36-.19-.45.96-1.18.97-1.95.02-3.56.23-.12.33-.24.55-.19.75.17,1.51.15,1.99-.53.14.19.25.32.34.48.21.34.36.71.59,1.04.36.46.42,1.09.16,1.61-.07.22-.1.44-.11.67Zm-4.23-5.93c.1-.08.23-.09.34-.02.24.17.58.11.75-.13.03-.04.05-.07.06-.12.09-.27.4-.47.6-.7.16.11.28.25.41.26.3-.03.57.17.62.46.13.44.33.84-.05,1.19-.33.3-.4.49-.13,1.05.37.76-.93.5-.93.5-.09.03-.22-.69-.22-.69,0-.08-.02-.16-.08-.22-.21-.17-.13-.11-.38-.3-.18-.2-.33-.43-.44-.67-.04-.05-.4-.01-.52-.12-.16-.16-.16-.44-.06-.48Zm-.22-.24c-.06-.19-.11-.39-.15-.58.53.04,1.04-.19,1.37-.6.16-.24.47-.33.74-.21.33.11.65-.18.88-.2.27-.02.25.63.23.62-.27-.09-.56-.06-.81.06-.23.17-.52.24-.81.19-.04-.01-1.4.74-1.45.73Zm5.86,6.05l-.74.1c-.06,0-.12-.04-.13-.1,0,0,0-.02,0-.03l.07-.58c0-.06.07-.11.13-.1.02,0,.04,0,.05.02l.67.48c.05.04.07.11.03.16-.02.03-.05.05-.08.05Zm.26-.73c-.42-.26-.85-.32-.94-.93-.15-.45-.39-.87-.68-1.24-.09-.16-.19-.33-.32-.56,1.59.29,1.58,1.12,1.95,2.73h0Zm-1.72-8.26c.13.61.96,4.69,1.09,5.55-1.53-1-2.59-.46-2.64-.75-.01-.1.02-.2.08-.28.09-.11.18-.21.28-.3.14-.13.21-.3.22-.49-.03-.32-.12-.63-.26-.93-.12-.26.03-.2.05-.48.04-.8-.33-1.56-.97-2.04-.24-.17-.4.22-.54.06-.11-.15-.29-.22-.47-.2-.54.17-.39.3-.64.41-.21.1-.47-.05-.61.12-.17.2-.06.57-.14.81-.27.83-.1.9-.05,1.15.05.18.13.36.25.51.06.08-.19.55.51.74.18.05.25.42.38.55.16.14.34.26.52.38.17.14.08.4.07.52-.99.4-1.86,1.05-2.51,1.89-.06.08-1.73-7.03-1.73-7.03-.02-.06.02-.12.08-.14,0,0,.01,0,.02,0,6.89-.5,6.73-1.43,7.02-.05h0Z" fill="#333"/><path d="m197.06,51.56c-.42.51-.89.98-1.36,1.47-.37.39-.74.07-.45-.35.48-.64,1-1.24,1.56-1.8.2-.28,1.36-.95.25.68Z" fill="#333"/><path d="m197.84,57.52c-.48-.02-.95-.09-1.42-.19-.28-.08-.61-.63.08-.63.51,0,1.02.06,1.52.16,1.4.08,1.04.77-.18.66Z" fill="#333"/><path d="m197.78,54.62c-.59.1-1.17.26-1.73.47-.24.12-.52-.16-.26-.43.07-.09.16-.15.26-.19.58-.14,1.17-.22,1.75-.39,1.02-.3.76.47-.02.55Z" fill="#333"/><path d="m195.68,105.79c-.11,3.07-2.4,4.25-3.99,2.97-1.66-1.53-1.78-4.1-.27-5.78,1.68-1.61,4.15-.15,4.26,2.8Zm-3.34,0s-.07-.02-.1-.04c.04-.16.05-.46.1-.47.4-.07.8-.08,1.2-.05.36.04.28.37.25.62-.08.73.59.49.95.47.33-.02.42-.19.33-.48-.21-.68-.57-1.25-1.33-1.34-.53-.07-1.07-.07-1.61,0-.59.08-1.05.57-1.1,1.16-.04.2.03.6.13.63.31.08.63.07.93,0,.11-.02.15-.32.23-.49h0Z" fill="#2973ef"/><path d="m172.58,113.99c-2.45-.11-4.34-2.18-4.23-4.63.11-2.31,1.96-4.15,4.27-4.23,2.4.08,4.29,2.1,4.21,4.5,0,.01,0,.02,0,.03.02,2.37-1.88,4.3-4.25,4.33Zm3.59-4.36c-.06-1.96-1.69-3.5-3.65-3.44-1.96.06-3.5,1.69-3.44,3.65.06,1.91,1.61,3.43,3.52,3.44,1.99-.02,3.59-1.66,3.57-3.65,0,0,0,0,0,0h0Z" fill="#333"/><path d="m186.88,107.91c-.12,3.32-3.29,4.85-5.36,2.93-1.6-1.59-1.75-4.14-.34-5.91,1.05-1.3,2.96-1.51,4.27-.46.29.24.54.52.73.85.49.77.73,1.67.71,2.58Zm-.5.03c.01-3.16-2.84-4.46-4.61-2.7-1.23,1.35-1.29,3.39-.14,4.81.84,1.1,2.41,1.31,3.51.47.2-.15.37-.33.52-.54.45-.58.71-1.3.72-2.04Z" fill="#333"/><path d="m183.93,74.32c-1.06.19-2.13-.29-2.7-1.2-.49-.65-.82-1.41-.96-2.21-.24-1.61,1.3-.69,3.11-.26.79.19,1.59.33,2.39.45.7.11.95.43.69,1.09-.5,1.04-1.42,1.81-2.53,2.14Zm-2.68-3.24c.14.99.86,1.81,1.82,2.08.78.09,1.53-.28,1.95-.94-1.25-.38-2.52-.76-3.77-1.14Z" fill="#333"/><path d="m186.27,69.19c-.69.45-1.27.21-.68-.59.47-.69.57-1.56.28-2.34-.86-2.91-1.92-6.01-1.97-6.37-.02-.13.05-.35.14-.39.15-.03.3.02.41.13.92,2.06,1.73,4.18,2.42,6.33.51,1.09.28,2.38-.58,3.23Z" fill="#333"/><path d="m189.08,60.18c.08.75-.36.54-.54.3-.1-.13-1.34-1.04-1.97-.77-.44.23-.89-.21-.45-.72,1.01-1.15,2.86.26,2.96,1.19Z" fill="#333"/><path d="m181.19,64.57c-.62,0-.93-.66-.93-1.12,0-.51.17-1.25.69-1.25,1.42,0,1.57,2.36.23,2.36Z" fill="#333"/><path d="m187.72,64.2c-1.09-.02-1.14-2.03-.1-2.14,1.13-.12,1.24,2.16.1,2.14Z" fill="#333"/><path d="m181.28,59.59c-.77.02-1.47.43-1.85,1.09-.34.65-.56-.08-.53-.16.04-.38.21-.73.47-1.01.58-.58,1.43-.79,2.21-.54.7.15.68.61-.3.62Z" fill="#333"/><path d="m173.34,110.91c-.83,0-1.67,0-2.52,0-.43.04-.8-.27-.84-.7,0-.03,0-.06,0-.08-.04-.44-.04-.89-.04-1.34-.03-.38.25-.72.63-.75.02,0,.05,0,.07,0,.87-.03,1.75-.01,2.7-.01v2.88Z" fill="#333"/><path d="m175.15,110.62c-.29-.16-.58-.34-.88-.47-.45-.25-.62-.82-.37-1.27.06-.12.15-.22.26-.3.31-.18.6-.4.99-.67v2.7Z" fill="#333"/><path d="m184.12,109.25h.5v.65c-.55.02-1.1.05-1.68.08v-.61l.67-.08c-.15-.22-.24-.38-.35-.53-.89-1.34-.74-.93-.5-1.47.12.1.3.18.34.3.11.33.25.61.63.62.4,0,.5-.32.59-.63.04-.12.19-.21.29-.31.24.44.42.15-.29,1.4-.1.17-.22.32-.34.48.04.04.08.08.13.12Z" fill="#333"/><path d="m184.17,106.53c.02.3.02.6-.02.9-.04.18-.24.32-.36.47-.16-.14-.45-.27-.47-.42-.07-.66-.1-1.33-.08-1.99,0-.14.31-.41.43-.38.21.06.38.22.45.43.04.33.05.66.02.99h.03Z" fill="#333"/><path d="m188.06,49.54c-.23-.21-.48-.4-.74-.57-1.45-.87-3.17-1.17-4.84-.87-8.87,1.55-13.57,11.92-12.62,20.37.2,1.73.78-.53.96-2.84.13-2.66.75-5.28,1.84-7.71,1.48-3.12,3.35-5.9,6.55-7.53,2.83-1.44,5.72-2.15,8.85-.84Zm6.89,24.65c-.11-1.51-.68-1.22-.82-.85-.21.57-.38,1.15-.57,1.72-1.14,3.42-3.97,8.53-6.98,11.02-1.89,1.57-3.82,2.59-4.25,3.21.18.1.28.33,1.05.08,2.19-.73,4.14-2.04,5.65-3.78,2.04-2.33,3.69-4.97,4.9-7.82.6-1.1.94-2.33,1.01-3.58Zm-9.94,17.55s.02.07.03.11c1.1.03,2.19-.27,3.12-.86,3.02-1.79,5.53-4.32,7.29-7.34.12-.26.15-.55.08-.82-.05-.19-.19-.34-.38-.41-1.08-.25-.82,2.64-7.82,7.74-.76.56-1.55,1.06-2.32,1.58Zm8.81-31.57c-.46.12.06-.52-.84,6.62-.19,1.45-.54,2.88-.78,4.33-.14.84-.52,1.64-.37,2.53.07.41.22.4.5.23.46-.33.77-.83.85-1.39,1.25-4.89,1.12-6.61.93-11.27-.06-.36-.16-.71-.3-1.05Zm-11.05,23.73c0-.06,0-.12,0-.17-1.2-.38-2.38-.84-3.53-1.37-2.02-1.02-3.66-2.67-4.65-4.7-.25-.54-.39-1.14-.63-1.7-.26-.59-.63-.65-.85.06-.12.53-.04,1.09.21,1.57.92,2.19,2.53,4.02,4.57,5.23,2,1.23,3.49,1.36,4.87,1.08Zm-8.49,7.03c-.26-.32-.55-.61-.87-.87-1.48-.88-3.15-1.39-4.87-1.5-.54-.04-1.07.1-1.52.4-.74.45-.19.89.26.86,3.33-.25,6.51,1.95,7.01,1.1h0Z" fill="#333"/><path d="m193.81,55.01c1.05,2.82.81,4.53,1.01,5.03.98,2.44,1.13,6.53,1.03,8.91-.13,2.99,1.12,1.93,1.48,6.53.14,1.8-.04,3.61-.53,5.34-.12.75-.14,1.51-.06,2.27,0,.3.49.58,1.9,2.1.51.56.79.93,1.64,1.91l.1,1.3c-.12.18-.23.38-.33.57-.51,1.29-1.27,2.47-2.22,3.48-1.22,1.17-2.58,2.18-4.06,3-3.99,2.26-7.35,1.29-8.4,1.5-1.94.38-4.73,1.73-8.43.59-3.91-1.21-5.22-3.94-6.54-4.99-1.28-1.01-2.83-1.22-4.42-1.24-.83-.19-1.66-.38-2.48-.57,1.24-1.79,2.44-.93,3.35-3.45,1.36-3.78-.3-4.98-1.02-20.4-.21-2.39-.08-4.79.37-7.14,1.1-4.66,3.45-8.46,7.62-10.99,6.85-4.15,17.1-1.5,19.98,6.24Zm-3.06,10.73c-.28-2.93-.36-5.11-1.67-6.7-1.26-1.61-2.68-3.07-4.25-4.38-.55-.43-1.61,0-2.23.33-2.49,1.21-4.62,3.05-6.17,5.35-.73.97-1.23,2.1-1.44,3.3-.15,1.17-.2,2.35-.16,3.53.33,5.11,2.95,7.85,7.13,10.5.3.18.66.25,1,.18.67-.14,1.31-.4,1.9-.75,4.11-2.79,5.83-6.35,5.87-11.36Zm-2.68-16.2c-.23-.21-.48-.4-.74-.57-1.45-.87-3.17-1.17-4.84-.87-8.87,1.55-13.57,11.92-12.62,20.37.2,1.73.78-.53.96-2.84.13-2.66.75-5.28,1.84-7.71,1.48-3.12,3.35-5.9,6.55-7.53,2.83-1.44,5.72-2.15,8.85-.84Zm6.89,24.65c-.11-1.51-.68-1.22-.82-.85-.21.57-.38,1.15-.57,1.72-1.14,3.42-3.97,8.53-6.98,11.02-1.89,1.57-3.82,2.59-4.25,3.21.18.1.28.33,1.05.08,2.19-.73,4.14-2.04,5.65-3.78,2.04-2.33,3.69-4.97,4.9-7.82.6-1.1.94-2.33,1.01-3.58Zm-9.94,17.55s.02.07.03.11c1.1.03,2.19-.27,3.12-.86,3.02-1.79,5.53-4.32,7.29-7.34.12-.26.15-.55.08-.82-.05-.19-.19-.34-.38-.41-1.08-.25-.82,2.64-7.82,7.74-.76.56-1.55,1.06-2.32,1.58Zm8.81-31.57c-.46.12.06-.52-.84,6.62-.19,1.45-.54,2.88-.78,4.33-.14.84-.52,1.64-.37,2.53.07.41.22.4.5.23.46-.33.77-.83.85-1.39,1.25-4.89,1.12-6.61.93-11.27-.06-.36-.16-.71-.3-1.05Zm-11.05,23.73c0-.06,0-.12,0-.17-1.2-.38-2.38-.84-3.53-1.37-2.02-1.02-3.66-2.67-4.65-4.7-.25-.54-.39-1.14-.63-1.7-.26-.59-.63-.65-.85.06-.12.53-.04,1.09.21,1.57.92,2.19,2.53,4.02,4.57,5.23,2,1.23,3.49,1.36,4.87,1.08Zm-8.49,7.03c-.26-.32-.55-.61-.87-.87-1.48-.88-3.15-1.39-4.87-1.5-.54-.04-1.07.1-1.52.4-.74.45-.19.89.26.86,3.33-.25,6.51,1.95,7.01,1.1h0Z" fill="#2973ef"/></g></svg>